<?xml version="1.0" encoding="UTF-8"?><svg id="Layer_1" xmlns="http://www.w3.org/2000/svg" viewBox="0 0 989.71 389.58"><defs><style>.cls-1{fill:#6f8a4d;}.cls-2,.cls-3{fill:#667c47;}.cls-4{fill:#fff;}.cls-5{font-size:196px;}.cls-5,.cls-6{fill:#424242;}.cls-5,.cls-3{font-family:Roboto-Bold, Roboto;font-weight:700;}.cls-7{fill:#93745a;}.cls-8{letter-spacing:0em;}.cls-9{letter-spacing:0em;}.cls-10{fill:#9e8063;}.cls-3{font-size:42px;}</style></defs><text class="cls-5" transform="translate(84.6 267.92)"><tspan x="0" y="0">m</tspan><tspan class="cls-9" x="169.68" y="0">y</tspan><tspan x="266.82" y="0" xml:space="preserve">col  </tspan></text><path class="cls-6" d="M664.27,268.68h-27.75v-94.84h27.75v94.84Z"/><path class="cls-10" d="M702.91,157.96l-2.17,89.05c-.33,4.34-.03,10.32,2.91,16.28.97,1.97,2.07,4.16,4.4,6.09,4.84,4.02,10.94,3.59,12.85,3.38,1.03.21,11.89,2.2,20.3-5.75,7.73-7.31,7.15-17.13,7.05-18.41l-1.44-89.68-43.89-.95Z"/><path class="cls-1" d="M637.79,154.4s83.87,15.38,172.47,0c1.16-7.26,3.94-30.74-9.97-53.99-21.08-35.21-61.77-38.64-65.77-38.91-4.39-.62-42.24-5.3-71.59,23.44-28.64,28.05-25.59,64.81-25.12,69.46Z"/><rect class="cls-4" x="660.56" y="100.46" width="16.49" height="31.25" rx="8.24" ry="8.24" transform="translate(115.55 -277.21) rotate(25.56)"/><text class="cls-5" transform="translate(768.03 272.18)"><tspan x="0" y="0">e</tspan></text><text class="cls-3" transform="translate(343.11 312.64)"><tspan x="0" y="0">inn</tspan><tspan class="cls-8" x="58.18" y="0">ov</tspan><tspan x="102.54" y="0">ati</tspan><tspan class="cls-9" x="150.38" y="0">v</tspan><tspan x="171.34" y="0">e solutions</tspan></text><path class="cls-2" d="M721.77,60.97c1.53,5.99,4.04,13.94,8.3,22.79,1.19,2.48,4.83,9.82,12.18,20.1,6.46,9.04,14.02,19.62,26.11,29.45,7.5,6.09,21.23,15.54,41.89,21.09,1.28-9.63,2.83-32-9.97-53.99-1.37-2.35-5.09-8.45-11-14.56-22.88-23.64-56.84-24.9-67.51-24.88Z"/><path class="cls-7" d="M746.79,164.52h-44.05c3.05,1.96,11.08,6.55,22.3,6.47,10.89-.07,18.69-4.5,21.75-6.47Z"/><path class="cls-7" d="M702.83,160.72c0,1.28,0,2.56,0,3.84,14.66.01,29.31.03,43.97.04l-.15-3.77-43.81-.11Z"/></svg>